<?xml version="1.0" encoding="utf-8"?>
<!-- Generator: Adobe Illustrator 27.8.1, SVG Export Plug-In . SVG Version: 6.00 Build 0)  -->
<svg version="1.1" id="Layer_1" xmlns="http://www.w3.org/2000/svg" xmlns:xlink="http://www.w3.org/1999/xlink" x="0px" y="0px"
	 viewBox="0 0 316.7 75.1" style="enable-background:new 0 0 316.7 75.1;" xml:space="preserve">
<style type="text/css">
	.st0{fill:#992131;}
	.st1{fill:#3A1E20;}
	.st2{fill:#34181B;}
</style>
<path class="st0" d="M35.6,18c0-0.7,0-1.3,0-1.9c0-1,0-2,0-3c0.1-3.3,2.7-6.1,6-6.6c1.2-0.2,2.5,0,3.7-0.1c0.1,0,0.2,0,0.2,0.1
	c0,0.1,0,0.2,0,0.2c0,9.8,0,19.6,0,29.4c0,5.8-2,10.8-6,15.1c-3.4,3.7-7.7,6-12.7,6.7c-6.6,1-12.5-0.6-17.7-4.8
	C5,50,2.4,45.8,1.5,40.7c-1.3-6.9,0.3-13.2,4.8-18.6c3.2-3.9,7.4-6.3,12.3-7.4c6-1.2,11.6-0.2,16.8,3.2C35.4,17.9,35.5,17.9,35.6,18
	 M23.2,48.6c6.7,0,12.2-5.3,12.4-12C35.7,29.8,30.2,24,23.2,24c-6.9,0-12.2,5.5-12.4,12.1C10.7,43.1,16.4,48.6,23.2,48.6"/>
<path class="st0" d="M124.3,58.5c-12.3,0-22.2-9.9-22.2-22.1c0-12.3,10.1-22.3,22.7-22.1c12.1,0.2,21.9,10.1,21.7,22.3
	C146.3,48.8,136.3,58.5,124.3,58.5 M124.3,48.7c6.7,0,12.4-5.4,12.3-12.3c0-7-5.7-12.2-12.2-12.3c-6.8-0.1-12.4,5.3-12.5,12.1
	C111.8,43.1,117.4,48.7,124.3,48.7"/>
<path class="st0" d="M96.4,26.8c0,3,0,6.1,0,9.1c0,6-2.1,11.2-6.2,15.5c-3.4,3.6-7.6,5.9-12.6,6.7c-7.2,1.1-13.5-0.8-18.8-5.7
	c-3.8-3.5-6.1-7.9-7-13.1c-0.2-1.2-0.3-2.5-0.3-3.7c0-6.2,0-12.4,0-18.7c0-0.3,0.1-0.4,0.3-0.4c1,0,1.9,0,2.9,0.1
	c3.1,0.3,5.7,2.7,6.4,5.7c0.1,0.5,0.2,1.1,0.2,1.6c0,3.9,0,7.7,0,11.6c0,3.6,1.2,6.7,3.7,9.3c2,2.1,4.5,3.4,7.4,3.7
	c4.1,0.4,7.7-0.9,10.6-3.8c1.9-2,3-4.3,3.4-7c0.1-0.5,0.1-1,0.1-1.5c0-4,0-7.9,0-11.9c0-2.1,0.6-3.9,2.1-5.5c1.2-1.2,2.7-2,4.4-2.2
	c1-0.1,2.1,0,3.1-0.1c0.2,0,0.2,0.1,0.2,0.2c0,0.4,0,0.7,0,1.1L96.4,26.8"/>
<path class="st1" d="M51,67.9c-0.6,1.1-1.1,2.2-1.7,3.4c-0.1,0.2-0.2,0.3-0.4,0.3c-0.2,0-0.3-0.1-0.4-0.3c-0.5-1.1-1.1-2.1-1.6-3.2
	c0-0.1-0.1-0.1-0.2-0.2v0.3c0,1.2,0,2.5,0,3.7c0,0.2,0,0.3-0.2,0.3c-0.5,0-0.5,0-0.5-0.5c0-1.7,0-3.3,0-5c0-0.2,0.1-0.3,0.3-0.3
	c0.5,0,0.7,0.1,0.9,0.5c0.5,1,1,2,1.5,3.1c0,0.1,0.1,0.2,0.2,0.3c0.2-0.4,0.4-0.8,0.6-1.2c0.4-0.8,0.9-1.7,1.3-2.5
	c0.1-0.2,0.2-0.3,0.4-0.3c0.6,0,0.6,0,0.6,0.6c0,1.6,0,3.2,0,4.8c0,0.3-0.1,0.4-0.3,0.3c-0.1,0-0.1,0-0.2,0c-0.2,0-0.3-0.1-0.3-0.3
	c0-1.2,0-2.5,0-3.7L51,67.9C51,67.9,51,67.9,51,67.9"/>
<path class="st1" d="M62.8,72.1c-1.6,0-2.9-1.1-3.1-2.6c-0.2-1.4,0.8-2.7,2.2-3.1c1.8-0.5,3.5,0.6,3.8,2.3c0.3,1.5-0.8,3-2.3,3.3
	C63.2,72.1,63,72.1,62.8,72.1 M64.9,69.2c0-1.2-1-2.1-2.2-2.1c-1.2,0-2.2,0.9-2.2,2.1c0,1.2,1,2.1,2.2,2.1
	C63.9,71.3,64.9,70.4,64.9,69.2"/>
<path class="st1" d="M85.8,69.2c0-0.9,0-1.8,0-2.6c0-0.2,0-0.2,0.2-0.2c1.2,0,2.3,0,3.5,0c0.2,0,0.2,0,0.2,0.2c0,0.5,0,0.5-0.5,0.5
	c-0.8,0-1.6,0-2.4,0c-0.2,0-0.3,0.1-0.3,0.3c0,0.4,0,0.8,0,1.2c0,0.2,0,0.3,0.3,0.3c0.8,0,1.5,0,2.3,0c0.2,0,0.3,0,0.3,0.3
	c0,0.5,0,0.5-0.5,0.5c-0.7,0-1.4,0-2.1,0c-0.2,0-0.2,0.1-0.2,0.2c0,0.4,0,0.9,0,1.3c0,0.2,0,0.2,0.2,0.2c0.9,0,1.8,0,2.8,0
	c0.2,0,0.3,0,0.3,0.3c0,0.5,0,0.5-0.5,0.5c-1.1,0-2.2,0-3.3,0c-0.2,0-0.3-0.1-0.3-0.3C85.8,70.9,85.8,70,85.8,69.2"/>
<path class="st1" d="M107,70.5c0.6,0.6,1.3,0.9,2.1,0.8c0.2,0,0.4,0,0.6-0.1c0.2-0.1,0.4-0.3,0.5-0.6c0-0.3-0.1-0.5-0.4-0.7
	c-0.2-0.1-0.4-0.2-0.7-0.3c-0.4-0.1-0.7-0.2-1.1-0.3c-0.8-0.3-1.1-0.8-1-1.5c0-0.7,0.5-1.2,1.2-1.3c0.9-0.2,1.7-0.1,2.5,0.4
	c0.2,0.1,0.2,0.2,0.1,0.3c-0.1,0.2-0.1,0.4-0.2,0.5c-0.2,0.1-0.3-0.1-0.5-0.2c-0.6-0.2-1.1-0.3-1.7-0.2c-0.3,0.1-0.5,0.2-0.5,0.5
	c0,0.3,0.1,0.5,0.3,0.7c0.4,0.2,0.8,0.3,1.2,0.4c0.3,0.1,0.6,0.2,0.9,0.4c1,0.6,1,2,0,2.6c-1.1,0.6-2.6,0.3-3.5-0.5
	c-0.1-0.1-0.1-0.1,0-0.2C106.8,70.9,106.9,70.7,107,70.5"/>
<path class="st1" d="M78.2,66.3c-0.4,0.9-0.8,1.8-1.1,2.7c-0.4,0.9-0.8,1.8-1.1,2.8c-0.1,0.2-0.1,0.3-0.4,0.2c-0.1,0-0.2,0-0.3,0
	c-0.2,0-0.3-0.1-0.4-0.3c-0.6-1.5-1.2-2.9-1.8-4.4c-0.1-0.4-0.3-0.7-0.4-1.1c0,0,0.1,0,0.1,0c0.8,0,0.8,0,1.1,0.7
	c0.5,1.3,1.1,2.6,1.6,4c0.1,0,0.1-0.1,0.1-0.2c0.5-1.4,1.1-2.7,1.6-4.1c0.1-0.3,0.2-0.4,0.5-0.3C77.9,66.3,78,66.3,78.2,66.3"/>
<path class="st1" d="M98,69.2c0-0.9,0-1.8,0-2.7c0-0.2,0.1-0.2,0.2-0.2c0.6,0,0.6,0,0.6,0.6c0,1.6,0,3.3,0,4.9c0,0.2,0,0.3-0.3,0.3
	c-0.5,0-0.5,0-0.5-0.5C98,71.5,98,69.2,98,69.2z"/>
<path class="st1" d="M36.7,69.2c0-0.9,0-1.8,0-2.6c0-0.2,0-0.3,0.3-0.3c0.5,0,0.5,0,0.5,0.6c0,1.6,0,3.3,0,4.9c0,0.2,0,0.3-0.3,0.3
	c-0.5,0-0.5,0-0.5-0.5C36.7,71.5,36.7,69.2,36.7,69.2z"/>
<path class="st1" d="M62.1,65.7c0.3-0.4,0.7-0.7,1-1.1c0.1-0.1,0.1-0.1,0.3,0c0.2,0.1,0.5,0.1,0.6,0.3c0,0.1-0.3,0.3-0.5,0.4
	C63.1,65.7,62.7,65.9,62.1,65.7"/>
<path class="st2" d="M164,18c5.2-3.3,10.8-4.4,16.8-3.2c5,1,9.1,3.5,12.3,7.4c4.5,5.4,6.1,11.7,4.8,18.6c-1,5.1-3.6,9.3-7.6,12.6
	c-5.2,4.2-11.1,5.8-17.7,4.8c-5-0.8-9.2-3-12.7-6.7c-4-4.2-6-9.3-6-15.1c0-9.8,0-19.6,0-29.4c0-0.1,0-0.2,0-0.2c0-0.1,0-0.1,0.2-0.1
	c1.2,0,2.5-0.1,3.7,0.1c3.3,0.4,5.9,3.3,6,6.6c0,1,0,2,0,3c0,0.6,0,1.2,0,1.9C163.9,18.1,163.9,18,164,18 M188.5,36.2
	c-0.1-6.5-5.4-12.1-12.4-12.1c-7,0-12.5,5.8-12.4,12.5c0.1,6.7,5.7,12.1,12.4,12C182.9,48.8,188.6,43.2,188.5,36.2"/>
<path class="st2" d="M244.3,58.5c-12.3,0-22.2-9.9-22.2-22.1c0-12.3,10.1-22.3,22.7-22.1c12.1,0.2,21.9,10.1,21.7,22.3
	C266.4,48.8,256.4,58.5,244.3,58.5 M244.3,48.7c6.7,0,12.4-5.4,12.3-12.3c0-7-5.7-12.2-12.2-12.3c-6.8-0.1-12.4,5.3-12.5,12.1
	C231.9,43.1,237.4,48.7,244.3,48.7"/>
<path class="st2" d="M293.4,58.5c-12.3,0-22.2-9.9-22.2-22.1c0-12.3,10.1-22.3,22.7-22.1c12.1,0.2,21.9,10.1,21.7,22.3
	C315.4,48.8,305.5,58.5,293.4,58.5 M293.4,48.7c6.7,0,12.4-5.4,12.3-12.3c0-7-5.7-12.2-12.2-12.3c-6.8-0.1-12.4,5.3-12.5,12.1
	C280.9,43.1,286.5,48.7,293.4,48.7"/>
<path class="st2" d="M204.9,57.9h3.2c4.4,0,8-3.6,8-8V0h-3.2c-4.4,0-8,3.6-8,8V57.9z"/>
<path class="st2" d="M315.6,35.7c0,0,1.5,17.6-6.4,28.6c-8.4,11.7-23.3,9.9-23.3,9.9v-4.3c0-3.3,2.4-6,5.6-6.7
	c2.6-0.5,6.2-1.5,8.4-3.6c4.9-4.4,6.7-19.2,6.7-19.2L315.6,35.7z"/>
</svg>
